<?xml version="1.0" encoding="UTF-8"?>
<!-- Created with Inkscape (http://www.inkscape.org/) -->
<svg width="400" height="486.35" version="1.1" viewBox="0 0 105.83 128.68" xmlns="http://www.w3.org/2000/svg" xmlns:cc="http://creativecommons.org/ns#" xmlns:dc="http://purl.org/dc/elements/1.1/" xmlns:rdf="http://www.w3.org/1999/02/22-rdf-syntax-ns#">
 <metadata>
  <rdf:RDF>
   <cc:Work rdf:about="">
    <dc:format>image/svg+xml</dc:format>
    <dc:type rdf:resource="http://purl.org/dc/dcmitype/StillImage"/>
    <dc:title/>
   </cc:Work>
  </rdf:RDF>
 </metadata>
 <g transform="translate(-43.386 -61.302)">
  <g transform="matrix(.26867 0 0 .26867 -16.814 45.698)">
   <g id="#fecd58ff" fill="#fecd58">
    <path d="m420.33 63c12.43 11.52 24.95 23.08 39.16 32.42 21.89 14.8 47.29 24.59 73.66 27.11 26.07 2.76 52.34-0.9 77.72-6.83 3.18 43.71 3.16 87.76-1.92 131.32-4.52 38.77-13.09 77.2-27.21 113.63-12.33 31.81-28.98 62.07-50.28 88.77-28.44 35.57-65.2 65.33-107.87 81.94-2.97 1.77-6.09-0.07-8.91-1.19-32.85-13.46-62.42-34.38-87.09-59.81-29.33-30.22-51.51-66.9-66.85-106-23.12-58.8-31.38-122.43-31.75-185.31-0.06-21.1 0.87-42.2 2.36-63.25 27.99 6.07 56.9 10.45 85.53 6.58 20.13-2.61 39.54-9.9 56.69-20.71 17.19-10.79 32.52-24.29 46.76-38.67m-80.79 55.51c-34.9 10.68-72.23 6.29-107.24-1.54-1.63 23.31-2.63 46.67-2.19 70.03 1.08 66.71 11.55 134.33 39.46 195.39 15.94 34.81 37.74 67.14 65.4 93.73 24.58 23.76 53.68 43.16 85.75 55.21 41.33-15.57 77.24-43.54 105.47-77.21 22.81-27.2 40.53-58.46 53.58-91.42 13.95-35.18 22.61-72.31 27.43-109.8 5.74-45.07 6.03-90.71 2.71-135.98-35.31 8.49-73.17 11.4-108.24 0.23-31.32-9.68-58.09-29.92-81.14-52.71-23.08 22.97-49.28 44.56-80.99 54.07z"/>
    <path d="m341.93 133.08c30.85-9.08 56.25-30.22 78.49-52.68 14.09 13.51 28.89 26.51 45.77 36.48 22.76 13.77 49.22 21.37 75.85 21.38 18.45 0.33 36.8-2.53 54.72-6.69 3.71 50.16 2.74 100.9-6.08 150.51-7.04 39.36-19.23 78.04-38.38 113.24-16.91 31.19-39.38 59.54-66.86 82.07-19.48 15.87-41.25 29.27-65.01 37.66-32.77-12.41-62.43-32.58-86.75-57.74-29.81-30.52-51.44-68.38-65.57-108.47-20.37-57.84-26.21-119.82-24.57-180.81 0.37-12.18 0.99-24.35 1.94-36.5 31.47 7.21 65.01 10.97 96.45 1.55m78.66-31.27c-19.22 18.78-41.56 35.16-67.38 43.47-30.42 10.03-63.22 8.62-94.4 3.29-2.41 43.3-1.19 87.02 6.67 129.75 103.62-0.19 207.24 0.03 310.86-0.11 0.12-0.3 0.35-0.89 0.47-1.19 7.57-42.33 9-85.57 6.65-128.45-34.27 4.71-70.39 5.82-103.19-6.82-22.69-8.47-42.35-23.28-59.68-39.94m-152.43 190.96c8.55 40.37 22.98 79.85 45.45 114.62 17.16 26.72 39.05 50.55 65.03 68.9 12.6 8.77 25.98 16.62 40.45 21.87 1.85 0.89 3.73-0.31 5.5-0.85 16.11-6.39 31.05-15.48 44.85-25.91 26.32-20.01 48.1-45.66 64.84-74.1 19.07-32.24 31.68-67.99 39.5-104.54-101.87-0.01-203.75-0.03-305.62 0.01z"/>
    <path d="m492.7 176.64c9.67-1.22 19.81-0.63 28.93 3.06-0.9 3.01-1.84 6-2.8 9-8.69-3.65-18.56-4.45-27.73-2.28-7.35 1.73-14.27 6.06-18.29 12.55-5.64 8.91-6.49 20.23-4.1 30.33 2.08 8.82 8.45 16.59 16.95 19.91 10.67 4.17 22.88 3.4 33.46-0.7 0.8 2.92 1.6 5.83 2.39 8.74-8.74 3.5-18.32 4.11-27.62 3.66-9.34-0.59-18.7-3.83-25.79-10.07-6.63-5.77-10.64-14.12-12.05-22.71-1.63-11.25-0.34-23.4 6.06-33.06 6.64-10.46 18.45-16.91 30.59-18.43z"/>
    <path d="m301.5 178.55c9.73-1.65 19.72-2.31 29.55-1.26 6.78 0.69 13.69 3.22 18.29 8.43 4 4.5 4.78 11.1 3.31 16.77-1.99 6.36-7.65 10.93-13.78 13.09 5.51 1.57 10.9 4.44 14.21 9.27 5.9 8.4 4.16 20.98-3.49 27.73-6.39 5.8-15.4 7.21-23.7 7.84-8.14 0.21-16.32 0.26-24.42-0.79 0.06-27.03 0.01-54.06 0.03-81.08m11.5 7.37c0 8.77-0.01 17.55 0.01 26.32 5.45-0.08 10.97 0.4 16.35-0.69 4.11-0.87 8.2-2.95 10.55-6.55 3.58-5.43 2-13.89-3.93-17-7.04-3.66-15.35-3.01-22.98-2.08m0 34.59v31.16c8.66 0.52 18.3 1.33 25.83-3.84 7.47-5.08 7.62-17.56 0.24-22.79-7.49-5.54-17.3-4.47-26.07-4.53z"/>
    <path d="m384.23 177.53c15.76-0.07 31.51-0.02 47.27-0.03 0 3 0 6-0.01 9-11.91 0.02-23.82-0.03-35.74 0.02 0 8.57-0.01 17.15 0.01 25.72 11.24 0.02 22.48 0.01 33.73 0.01 0.01 2.99 0.02 5.99 0 8.99-11.24 0.02-22.48 0.01-33.73 0.01-0.02 9.83-0.02 19.66 0 29.5 12.49 0.01 24.99-0.02 37.48 0.01 0.01 3.07 0.01 6.15 0.01 9.23-16.34 0.01-32.67 0.02-49 0-0.01-27.49 0.02-54.97-0.02-82.46z"/>
    <path d="m394.06 318.09c7.04-6.2 15.26-11 24.04-14.27-11.47 10.16-20.14 23.47-24.09 38.32 17.27-6.48 36.78-6.43 54.06 0.01-3.93-14.78-12.5-28.13-23.95-38.23 22.4 8.01 40.38 27.24 46.92 50.11 0.42 2.49 2.48 4.05 4.18 5.71 17.63 17.31 25.57 43.49 21.14 67.74-3.18-15.82-10.95-30.74-22.74-41.84-2.55 19.11-12.47 37.1-27.43 49.29 15.92 4.71 33.2 3.87 48.73-1.87-18.84 17.08-46.64 23.32-71.05 16.3-2.13-0.89-4.35-0.45-6.46 0.23-24.2 6.67-51.54 0.35-70.21-16.48 15.55 5.63 32.78 6.56 48.69 1.82-14.79-12.25-24.95-30.04-27.31-49.15-11.85 11.18-19.58 26.28-22.63 42.22-3.65-18.21-0.02-37.67 9.47-53.58 3.96-6.81 9.31-12.65 14.85-18.18 4.15-14.6 12.21-28.22 23.79-38.15m-2.09 52.36c2.19 20.21 13.04 39.13 29.03 51.61 16.11-12.4 26.96-31.43 29.1-51.68-18.41-7.58-39.73-7.58-58.13 0.07z"/>
   </g>
   <g id="#b4121dff" fill="#b4121d">
    <path d="m339.54 118.51c31.71-9.51 57.91-31.1 80.99-54.07 23.05 22.79 49.82 43.03 81.14 52.71 35.07 11.17 72.93 8.26 108.24-0.23 3.32 45.27 3.03 90.91-2.71 135.98-4.82 37.49-13.48 74.62-27.43 109.8-13.05 32.96-30.77 64.22-53.58 91.42-28.23 33.67-64.14 61.64-105.47 77.21-32.07-12.05-61.17-31.45-85.75-55.21-27.66-26.59-49.46-58.92-65.4-93.73-27.91-61.06-38.38-128.68-39.46-195.39-0.44-23.36 0.56-46.72 2.19-70.03 35.01 7.83 72.34 12.22 107.24 1.54m2.39 14.57c-31.44 9.42-64.98 5.66-96.45-1.55-0.95 12.15-1.57 24.32-1.94 36.5-1.64 60.99 4.2 122.97 24.57 180.81 14.13 40.09 35.76 77.95 65.57 108.47 24.32 25.16 53.98 45.33 86.75 57.74 23.76-8.39 45.53-21.79 65.01-37.66 27.48-22.53 49.95-50.88 66.86-82.07 19.15-35.2 31.34-73.88 38.38-113.24 8.82-49.61 9.79-100.35 6.08-150.51-17.92 4.16-36.27 7.02-54.72 6.69-26.63-0.01-53.09-7.61-75.85-21.38-16.88-9.97-31.68-22.97-45.77-36.48-22.24 22.46-47.64 43.6-78.49 52.68z"/>
    <path d="m420.59 101.81c17.33 16.66 36.99 31.47 59.68 39.94 32.8 12.64 68.92 11.53 103.19 6.82 2.35 42.88 0.92 86.12-6.65 128.45-0.12 0.3-0.35 0.89-0.47 1.19-103.62 0.14-207.24-0.08-310.86 0.11-7.86-42.73-9.08-86.45-6.67-129.75 31.18 5.33 63.98 6.74 94.4-3.29 25.82-8.31 48.16-24.69 67.38-43.47m72.11 74.83c-12.14 1.52-23.95 7.97-30.59 18.43-6.4 9.66-7.69 21.81-6.06 33.06 1.41 8.59 5.42 16.94 12.05 22.71 7.09 6.24 16.45 9.48 25.79 10.07 9.3 0.45 18.88-0.16 27.62-3.66-0.79-2.91-1.59-5.82-2.39-8.74-10.58 4.1-22.79 4.87-33.46 0.7-8.5-3.32-14.87-11.09-16.95-19.91-2.39-10.1-1.54-21.42 4.1-30.33 4.02-6.49 10.94-10.82 18.29-12.55 9.17-2.17 19.04-1.37 27.73 2.28 0.96-3 1.9-5.99 2.8-9-9.12-3.69-19.26-4.28-28.93-3.06m-191.2 1.91c-0.02 27.02 0.03 54.05-0.03 81.08 8.1 1.05 16.28 1 24.42 0.79 8.3-0.63 17.31-2.04 23.7-7.84 7.65-6.75 9.39-19.33 3.49-27.73-3.31-4.83-8.7-7.7-14.21-9.27 6.13-2.16 11.79-6.73 13.78-13.09 1.47-5.67 0.69-12.27-3.31-16.77-4.6-5.21-11.51-7.74-18.29-8.43-9.83-1.05-19.82-0.39-29.55 1.26m82.73-1.02c0.04 27.49 0.01 54.97 0.02 82.46 16.33 0.02 32.66 0.01 49 0 0-3.08 0-6.16-0.01-9.23-12.49-0.03-24.99 0-37.48-0.01-0.02-9.84-0.02-19.67 0-29.5 11.25 0 22.49 0.01 33.73-0.01 0.02-3 0.01-6 0-8.99-11.25 0-22.49 0.01-33.73-0.01-0.02-8.57-0.01-17.15-0.01-25.72 11.92-0.05 23.83 0 35.74-0.02 0.01-3 0.01-6 0.01-9-15.76 0.01-31.51-0.04-47.27 0.03z"/>
    <path d="m313 185.92c7.63-0.93 15.94-1.58 22.98 2.08 5.93 3.11 7.51 11.57 3.93 17-2.35 3.6-6.44 5.68-10.55 6.55-5.38 1.09-10.9 0.61-16.35 0.69-0.02-8.77-0.01-17.55-0.01-26.32z"/>
    <path d="m313 220.51c8.77 0.06 18.58-1.01 26.07 4.53 7.38 5.23 7.23 17.71-0.24 22.79-7.53 5.17-17.17 4.36-25.83 3.84v-31.16z"/>
    <path d="m268.16 292.77c101.87-0.04 203.75-0.02 305.62-0.01-7.82 36.55-20.43 72.3-39.5 104.54-16.74 28.44-38.52 54.09-64.84 74.1-13.8 10.43-28.74 19.52-44.85 25.91-1.77 0.54-3.65 1.74-5.5 0.85-14.47-5.25-27.85-13.1-40.45-21.87-25.98-18.35-47.87-42.18-65.03-68.9-22.47-34.77-36.9-74.25-45.45-114.62m125.9 25.32c-11.58 9.93-19.64 23.55-23.79 38.15-5.54 5.53-10.89 11.37-14.85 18.18-9.49 15.91-13.12 35.37-9.47 53.58 3.05-15.94 10.78-31.04 22.63-42.22 2.36 19.11 12.52 36.9 27.31 49.15-15.91 4.74-33.14 3.81-48.69-1.82 18.67 16.83 46.01 23.15 70.21 16.48 2.11-0.68 4.33-1.12 6.46-0.23 24.41 7.02 52.21 0.78 71.05-16.3-15.53 5.74-32.81 6.58-48.73 1.87 14.96-12.19 24.88-30.18 27.43-49.29 11.79 11.1 19.56 26.02 22.74 41.84 4.43-24.25-3.51-50.43-21.14-67.74-1.7-1.66-3.76-3.22-4.18-5.71-6.54-22.87-24.52-42.1-46.92-50.11 11.45 10.1 20.02 23.45 23.95 38.23-17.28-6.44-36.79-6.49-54.06-0.01 3.95-14.85 12.62-28.16 24.09-38.32-8.78 3.27-17 8.07-24.04 14.27z"/>
    <path d="m391.97 370.45c18.4-7.65 39.72-7.65 58.13-0.07-2.14 20.25-12.99 39.28-29.1 51.68-15.99-12.48-26.84-31.4-29.03-51.61z"/>
   </g>
  </g>
 </g>
</svg>
